<?xml version="1.0" encoding="UTF-8" standalone="no"?>
<!-- Created with Inkscape (http://www.inkscape.org/) -->

<svg
   xmlns:dc="http://purl.org/dc/elements/1.1/"
   xmlns:cc="http://creativecommons.org/ns#"
   xmlns:rdf="http://www.w3.org/1999/02/22-rdf-syntax-ns#"
   xmlns:svg="http://www.w3.org/2000/svg"
   xmlns="http://www.w3.org/2000/svg"
   xmlns:sodipodi="http://sodipodi.sourceforge.net/DTD/sodipodi-0.dtd"
   xmlns:inkscape="http://www.inkscape.org/namespaces/inkscape"
   id="svg3914"
   version="1.1"
   inkscape:version="0.48.5 r10040"
   width="744.09448"
   height="1052.3622"
   sodipodi:docname="logo-armilla.svg"
   inkscape:export-filename="/home/victor/Dropbox/eXO/Documents/logo/logo/fondo blanco/logo-armilla.png"
   inkscape:export-xdpi="66.553688"
   inkscape:export-ydpi="66.553688">
  <metadata
     id="metadata3920">
    <rdf:RDF>
      <cc:Work
         rdf:about="">
        <dc:format>image/svg+xml</dc:format>
        <dc:type
           rdf:resource="http://purl.org/dc/dcmitype/StillImage" />
        <dc:title></dc:title>
      </cc:Work>
    </rdf:RDF>
  </metadata>
  <defs
     id="defs3918" />
  <sodipodi:namedview
     pagecolor="#ffffff"
     bordercolor="#666666"
     borderopacity="1"
     objecttolerance="10"
     gridtolerance="10000"
     guidetolerance="10"
     inkscape:pageopacity="0"
     inkscape:pageshadow="2"
     inkscape:window-width="1280"
     inkscape:window-height="992"
     id="namedview3916"
     showgrid="true"
     inkscape:zoom="1.2997712"
     inkscape:cx="447.60274"
     inkscape:cy="462.57253"
     inkscape:window-x="1280"
     inkscape:window-y="0"
     inkscape:window-maximized="1"
     inkscape:current-layer="svg3914">
    <inkscape:grid
       type="xygrid"
       id="grid4712"
       empspacing="5"
       visible="true"
       enabled="false"
       snapvisiblegridlinesonly="true" />
  </sodipodi:namedview>
  <rect
     style="color:#000000;fill:#333333;stroke:#000000;stroke-width:0.80315363;stroke-linecap:butt;stroke-linejoin:miter;stroke-miterlimit:4;stroke-opacity:1;stroke-dasharray:3.21261416, 3.21261416;stroke-dashoffset:0;marker:none;visibility:visible;display:inline;overflow:visible;enable-background:accumulate"
     id="rect3003"
     width="399.19684"
     height="399.19684"
     x="153.84474"
     y="306.89316"
     rx="0.23430233"
     ry="0.89564598" />
  <g
     transform="scale(0.94879369,1.0539699)"
     style="font-size:30.33142662px;font-style:normal;font-weight:bold;line-height:125%;letter-spacing:0px;word-spacing:0px;fill:#ff4e00;fill-opacity:1;stroke:none;font-family:Sans;-inkscape-font-specification:LucidaTypewriter Bold"
     id="text4012">
    <path
       d="m 323.26245,423.88273 0,6.29436 -59.16701,0 c 0.55947,8.85876 3.21709,15.61937 7.97286,20.28184 4.80233,4.61587 11.46968,6.9238 20.00208,6.9238 4.94219,0 9.72124,-0.60612 14.33716,-1.81838 4.66242,-1.21223 9.27829,-3.0306 13.8476,-5.45511 l 0,12.1691 c -4.61594,1.95825 -9.34836,3.45024 -14.19728,4.47599 -4.84905,1.02575 -9.76798,1.53862 -14.75679,1.53862 -12.49551,0 -22.40329,-3.63674 -29.72338,-10.91022 -7.27349,-7.27347 -10.91023,-17.11132 -10.91023,-29.51357 0,-12.8218 3.45024,-22.98602 10.35073,-30.49269 6.94709,-7.55316 16.29537,-11.32977 28.04489,-11.32986 10.53717,9e-5 18.85971,3.4037 24.96763,10.21086 6.15442,6.76067 9.23166,15.96909 9.23174,27.62526 m -12.86848,-3.77662 c -0.0933,-7.04031 -2.07487,-12.6586 -5.94467,-16.8549 -3.8233,-4.19618 -8.90541,-6.2943 -15.24635,-6.29437 -7.18027,7e-5 -12.93844,2.02825 -17.27453,6.08455 -4.28951,4.05643 -6.76063,9.76798 -7.41336,17.13466 l 45.87891,-0.0699"
       style="font-size:143.23171997000000033px;font-variant:normal;font-weight:500;font-stretch:normal;fill:#ffffff;font-family:Sans;-inkscape-font-specification:LucidaTypewriter Medium"
       id="path3005" />
    <path
       d="m 402.22173,412.9725 36.22755,53.29227 -28.04488,0 -24.40814,-35.66805 -24.19833,35.66805 -28.18475,0 36.22755,-53.29227 -34.82881,-51.12421 28.11482,0 22.86952,33.63987 22.79958,-33.63987 28.2547,0 -34.82881,51.12421"
       style="font-weight:bold;fill:#ff4e00;-inkscape-font-specification:LucidaTypewriter Bold"
       id="path3007" />
    <path
       d="m 497.19667,379.4725 c -8.20603,9e-5 -14.57033,3.03071 -19.0929,9.09186 -4.52265,6.06131 -6.78396,14.59366 -6.78392,25.59707 -4e-5,10.9569 2.26127,19.46594 6.78392,25.52714 4.52257,6.06126 10.88687,9.09188 19.0929,9.09186 8.25254,2e-5 14.64015,-3.0306 19.16284,-9.09186 4.52253,-6.0612 6.78384,-14.57024 6.78392,-25.52714 -8e-5,-11.00341 -2.26139,-19.53576 -6.78392,-25.59707 -4.52269,-6.06115 -10.9103,-9.09177 -19.16284,-9.09186 m 0,-19.51252 c 16.78489,1e-4 29.9331,4.80247 39.44467,14.4071 9.51138,9.60481 14.26711,22.86958 14.26723,39.79435 -1.2e-4,16.87826 -4.75585,30.11972 -14.26723,39.72443 -9.51157,9.60473 -22.65978,14.40709 -39.44467,14.40709 -16.73838,0 -29.8866,-4.80236 -39.44467,-14.40709 -9.51149,-9.60471 -14.26723,-22.84617 -14.26722,-39.72443 -10e-6,-16.92477 4.75573,-30.18954 14.26722,-39.79435 9.55807,-9.60463 22.70629,-14.407 39.44467,-14.4071"
       style="font-weight:bold;fill:#ff4e00;-inkscape-font-specification:LucidaTypewriter Bold"
       id="path3009" />
  </g>
  <text
     xml:space="preserve"
     style="font-size:22.81734657000000155px;font-style:normal;font-weight:normal;line-height:125%;letter-spacing:0px;word-spacing:0px;fill:#ffffff;fill-opacity:1;stroke:none;font-family:Sans"
     x="246.42847"
     y="609.97662"
     id="text4012-7"
     sodipodi:linespacing="125%"
     transform="scale(0.95538806,1.0466951)"
     inkscape:export-xdpi="93.726006"
     inkscape:export-ydpi="93.726006"><tspan
       sodipodi:role="line"
       id="tspan4014-0"
       x="246.42847"
       y="609.97662"
       style="font-size:47.53612900000000252px;font-style:normal;font-variant:normal;font-weight:500;font-stretch:normal;fill:#ffffff;fill-opacity:1;font-family:Sans;-inkscape-font-specification:Lucida Medium">xarxa oberta</tspan></text>
  <g
     style="fill:#ff4e00;fill-opacity:1;overflow:visible"
     id="g4119"
     transform="matrix(0.13198046,0,0,0.1390731,240.54161,506.62705)"
     inkscape:export-filename="/home/victor/Dropbox/eXO/Documents/logo/logo/fondo blanco/text4012-7-3.png"
     inkscape:export-xdpi="93.726006"
     inkscape:export-ydpi="93.726006">
    <path
       id="path5"
       transform="translate(0,-1.956853e-5)"
       d="m 1859.2188,132.125 c -39.656,0 -73.8358,16.149 -102.5938,48.5 -28.758,32.352 -48.265,76.5925 -58.5,132.6875 -10.386,56.929 -7.011,102.0175 10.125,135.3125 17.129,33.294 45.0473,44.55125 85.2812,50.40625 3.019,0.438 44.3476,2.94075 56.1876,1.59375 27.6589,-3.164 59.4527,-5.8865 76.4687,-17.4375 l -15.7187,-68.875 c -26.303,9.865 -53.3346,14.2375 -75.4376,14.5625 -40.7079,-2.494 -54.2107,-14.5335 -61.2187,-28.1875 -7,-13.654 -8.5572,-33.9225 -4.6563,-60.8125 l 183.0313,0 c 0.855,-2.945 1.6103,-6.0575 2.2813,-9.3125 l 2.8124,-14.65625 c 10.734,-58.844 7.5773,-104.19125 -9.4687,-136.03125 -17.046,-31.84 -46.5868,-47.75 -88.5937,-47.75 z m -12.4688,76.75 c 17.137,0 29.1438,6.06525 36.0938,18.15625 6.9619,12.093 8.6699,29.71075 5.125,52.84375 l -107.875,0 c 5.6849,-22.92 14.237,-40.4885 25.625,-52.6875 11.3809,-12.199 25.0672,-18.3125 41.0312,-18.3125 z"
       style="fill:#ff4e00;fill-opacity:1"
       inkscape:connector-curvature="0" />
    <path
       id="path7"
       transform="translate(0,-1.956853e-5)"
       d="m 167.09375,132.125 c -35.448,0 -66.623,16.331 -93.5,49 -26.873999,32.67 -45.35475,76.7185 -55.46875,132.1875 -9.5809997,52.522 -6.599249,94.59575 8.96875,126.21875 15.570999,31.619 41.086251,47.4375 76.53125,47.4375 18.483,0 34.61725,-3.9445 48.40625,-11.8125 13.78,-7.865 26.03325,-20.08125 36.78125,-36.65625 l -5.5625,30.53125 c -5.932,32.535 -14.5465,54.8615 -25.8125,66.9375 -11.269,12.071 -28.29825,16.24675 -51.15625,18.09375 -24.096999,1.942 -57.870501,-1.82275 -90.5625,-14.09375 L 0,608.84375 c 17.012999,11.555 60.843751,18.125 89.59375,18.125 21.835,0 41.806,-2.77675 59.875,-8.34375 18.062,-5.567 33.61425,-13.7225 46.65625,-24.4375 15.277,-12.82 27.33125,-28.68475 36.15625,-47.59375 8.831,-18.914 16.5065,-46.34525 23.0625,-82.28125 l 58.34375,-319.9375 -69.6875,0 -7.5625,41.4375 c -4.93,-18.11 -13.092,-31.5845 -24.5,-40.4375 -11.408,-8.846 -26.36275,-13.25 -44.84375,-13.25 z m 2.78125,78.6875 c 19.32,0 32.64925,8.5795 40.03125,25.6875 7.381,17.114 8.23925,41.31375 2.53125,72.59375 -6.013,32.965 -15.66475,58.034 -28.96875,75.25 -13.309,17.219 -29.64875,25.84375 -48.96875,25.84375 -19.163,0 -32.34025,-8.62475 -39.53125,-25.84375 -7.194,-17.216 -7.856,-41.875 -2,-74 5.745,-31.495 15.35225,-55.948 28.78125,-73.375 13.427,-17.427 29.471,-26.15625 48.125,-26.15625 z"
       style="fill:#ff4e00;fill-opacity:1;fill-rule:evenodd"
       inkscape:connector-curvature="0" />
    <path
       clip-rule="evenodd"
       d="m 645.667,144.371 -62.491,342.595 h -71.779 l 7.414,-40.651 c -13.437,16.567 -27.84,28.98 -43.209,37.26 -15.372,8.278 -31.71,12.424 -49.017,12.424 -30.071,0 -50.828,-9.865 -62.266,-29.602 -11.436,-19.729 -13.572,-49.218 -6.412,-88.468 l 42.601,-233.558 h 73.29 l -37.774,207.087 c -4.443,24.372 -4.337,41.76 0.322,52.16 4.658,10.402 14.547,15.599 29.673,15.599 17.145,0 31.982,-6.462 44.506,-19.383 12.53,-12.925 20.823,-30.52 24.885,-52.795 l 36.964,-202.668 h 73.293 z"
       id="path13"
       inkscape:connector-curvature="0"
       style="fill:#ff4e00;fill-opacity:1;fill-rule:evenodd" />
    <polygon
       clip-rule="evenodd"
       points="684.663,486.965 747.155,144.371 820.442,144.371 757.957,486.965 "
       id="polygon15"
       style="fill:#ff4e00;fill-opacity:1;fill-rule:evenodd" />
    <g
       id="g17"
       style="fill:#ff4e00;fill-opacity:1">
      <path
         d="m 751.343,60.317 c 1.233,-24.613 22.175,-44.561 46.785,-44.561 24.609,0 43.566,19.948 42.331,44.561 -1.23,24.61 -22.171,44.56 -46.782,44.56 -24.61,0 -43.562,-19.95 -42.334,-44.56 z"
         id="path19"
         inkscape:connector-curvature="0"
         style="fill:#ff4e00;fill-opacity:1" />
      <path
         d="M 795.901,60.317"
         id="path21"
         inkscape:connector-curvature="0"
         style="fill:#ff4e00;fill-opacity:1" />
    </g>
    <g
       id="g23"
       style="fill:#ff4e00;fill-opacity:1">
      <path
         d="m 1256.255,306.076 c 1.228,-24.61 22.181,-44.561 46.79,-44.561 24.61,0 43.561,19.95 42.325,44.561 -1.228,24.61 -22.175,44.56 -46.779,44.56 -24.613,-0.001 -43.563,-19.95 -42.336,-44.56 z"
         id="path25"
         inkscape:connector-curvature="0"
         style="fill:#ff4e00;fill-opacity:1" />
      <path
         d="M 1300.813,306.076"
         id="path27"
         inkscape:connector-curvature="0"
         style="fill:#ff4e00;fill-opacity:1" />
    </g>
    <path
       clip-rule="evenodd"
       d="m 1372.172,486.965 62.49,-342.595 h 71.781 l -7.41,40.635 c 13.268,-16.562 27.626,-28.979 43.083,-37.252 15.449,-8.277 31.75,-12.417 48.886,-12.417 30.24,0 51.083,9.812 62.541,29.435 11.459,19.627 13.591,49.167 6.389,88.624 l -42.596,233.57 h -73.291 l 37.774,-207.1 c 4.479,-24.58 4.366,-42.128 -0.359,-52.634 -4.726,-10.508 -14.563,-15.763 -29.52,-15.763 -17.314,0 -32.19,6.462 -44.634,19.387 -12.44,12.923 -20.689,30.522 -24.758,52.793 l -37.087,203.316 h -73.289 z"
       id="path29"
       inkscape:connector-curvature="0"
       style="fill:#ff4e00;fill-opacity:1;fill-rule:evenodd" />
    <path
       clip-rule="evenodd"
       d="m 2095.44,489.543 c -6.772,0.216 -14.868,0.594 -24.307,1.131 -9.438,0.534 -15.427,0.806 -17.947,0.806 -28.092,0 -46.118,-6.569 -54.072,-19.701 -7.955,-13.139 -8.404,-39.045 -1.358,-77.72 l 33.782,-185.169 h -36.195 l 11.767,-64.52 h 36.195 l 17.065,-93.555 h 72.77 l -17.064,93.555 h 42.324 l -11.767,64.52 h -42.324 l -34.574,189.571 c -1.652,9.027 -1.134,14.955 1.542,17.794 2.669,2.835 8.959,4.257 18.873,4.257 h 17.888 l -12.598,69.031 z"
       id="path31"
       inkscape:connector-curvature="0"
       style="fill:#ff4e00;fill-opacity:1;fill-rule:evenodd" />
    <path
       d="M 910.843,208.89 H 871.62 l 11.767,-64.52 h 55.497 c 5.726,-27.093 12.225,-48.422 19.484,-63.988 8.83,-18.915 20.876,-34.783 36.152,-47.596 13.037,-10.723 28.593,-18.867 46.655,-24.434 C 1059.244,2.786 1079.196,0 1101.034,0 c 28.747,0 72.589,6.559 89.607,18.114 l -15.717,68.892 c -32.692,-12.269 -66.478,-16.046 -90.572,-14.099 -22.859,1.845 -39.895,6.035 -51.165,18.113 -9.627,10.312 -17.31,28.099 -23.043,53.351 h 188.996 l -62.485,342.595 h -73.285 l 50.719,-278.075 H 997.854 L 946.65,482.601 H 876.94 L 926.862,208.89 h -16.019 z"
       id="path33"
       inkscape:connector-curvature="0"
       style="fill:#ff4e00;fill-opacity:1" />
  </g>
  <text
     xml:space="preserve"
     style="font-size:24.11961173999999986px;font-style:normal;font-weight:normal;line-height:125%;letter-spacing:0px;word-spacing:0px;fill:#ffffff;fill-opacity:1;stroke:none;font-family:Sans"
     x="-625.71515"
     y="203.63496"
     id="text4012-7-3"
     sodipodi:linespacing="125%"
     transform="matrix(0,-0.95538806,1.0466951,0,0,0)"
     inkscape:export-xdpi="93.726006"
     inkscape:export-ydpi="93.726006"><tspan
       sodipodi:role="line"
       id="tspan4014-0-6"
       x="-625.71515"
       y="203.63496"
       style="font-size:50.24917603000000099px;font-style:normal;font-variant:normal;font-weight:500;font-stretch:normal;fill:#ffffff;fill-opacity:1;font-family:Sans;-inkscape-font-specification:Lucida Medium">expansió</tspan></text>
</svg>
