<?xml version="1.0" encoding="UTF-8" standalone="no"?>
<!-- Created with Inkscape (http://www.inkscape.org/) -->

<svg
   xmlns:dc="http://purl.org/dc/elements/1.1/"
   xmlns:cc="http://creativecommons.org/ns#"
   xmlns:rdf="http://www.w3.org/1999/02/22-rdf-syntax-ns#"
   xmlns:svg="http://www.w3.org/2000/svg"
   xmlns="http://www.w3.org/2000/svg"
   xmlns:sodipodi="http://sodipodi.sourceforge.net/DTD/sodipodi-0.dtd"
   xmlns:inkscape="http://www.inkscape.org/namespaces/inkscape"
   id="svg3914"
   version="1.1"
   inkscape:version="0.92.1 r15371"
   width="793.70081"
   height="1122.5197"
   sodipodi:docname="logo-armilla-guifi-blanc-alternate.svg"
   inkscape:export-xdpi="66.553688"
   inkscape:export-ydpi="66.553688"
  <metadata
     id="metadata3920">
    <rdf:RDF>
      <cc:Work
         rdf:about="">
        <dc:format>image/svg+xml</dc:format>
        <dc:type
           rdf:resource="http://purl.org/dc/dcmitype/StillImage" />
        <dc:title />
      </cc:Work>
    </rdf:RDF>
  </metadata>
  <defs
     id="defs3918" />
  <sodipodi:namedview
     pagecolor="#ffffff"
     bordercolor="#666666"
     borderopacity="1"
     objecttolerance="10"
     gridtolerance="10000"
     guidetolerance="10"
     inkscape:pageopacity="0"
     inkscape:pageshadow="2"
     inkscape:window-width="1362"
     inkscape:window-height="729"
     id="namedview3916"
     showgrid="true"
     inkscape:zoom="0.91907703"
     inkscape:cx="354.58691"
     inkscape:cy="503.11608"
     inkscape:window-x="0"
     inkscape:window-y="18"
     inkscape:window-maximized="0"
     inkscape:current-layer="svg3914"
     inkscape:snap-global="false"
     inkscape:measure-start="614.747,582.106"
     inkscape:measure-end="323.15,800.803">
    <inkscape:grid
       type="xygrid"
       id="grid4712"
       empspacing="5"
       visible="true"
       enabled="false"
       snapvisiblegridlinesonly="true"
       originx="0"
       originy="0"
       spacingx="1.0666667"
       spacingy="1.0666667" />
  </sodipodi:namedview>
  <rect
     style="color:#000000;display:inline;overflow:visible;visibility:visible;fill:#333333;stroke:#000000;stroke-width:0.8566972;stroke-linecap:butt;stroke-linejoin:miter;stroke-miterlimit:4;stroke-dasharray:3.42678844, 3.42678844;stroke-dashoffset:0;stroke-opacity:1;marker:none;enable-background:accumulate"
     id="rect3003"
     width="425.80997"
     height="425.80997"
     x="164.10106"
     y="327.35269"
     rx="0.24992248"
     ry="0.9553557"
     inkscape:export-xdpi="93.726006"
     inkscape:export-ydpi="93.726006" />
  <g
     transform="matrix(0.94879369,0,0,1.0539699,-28.433038,-33.588107)"
     style="font-style:normal;font-weight:bold;font-size:30.33142662px;line-height:125%;font-family:Sans;-inkscape-font-specification:'LucidaTypewriter Bold';letter-spacing:0px;word-spacing:0px;fill:#ff4e00;fill-opacity:1;stroke:none"
     id="text4012"
     inkscape:export-xdpi="93.726006"
     inkscape:export-ydpi="93.726006">
    <path
       d="m 344.81328,452.14158 v 6.71398 H 281.7018 c 0.59677,9.44935 3.43157,16.66066 8.50439,21.63397 5.12248,4.92359 12.23432,7.38538 21.33555,7.38538 5.27167,0 10.36932,-0.64653 15.29297,-1.9396 4.97325,-1.29305 9.89684,-3.23264 14.77077,-5.81879 v 12.98038 c -4.92367,2.0888 -9.97158,3.68025 -15.14376,4.77439 -5.17232,1.09413 -10.41918,1.64119 -15.74058,1.64119 -13.32854,0 -23.89684,-3.87919 -31.70494,-11.63757 -7.75839,-7.75837 -11.63758,-18.25207 -11.63758,-31.48114 0,-13.67659 3.68026,-24.51842 11.04078,-32.52554 7.41023,-8.0567 17.38173,-12.08508 29.91455,-12.08518 11.23965,10e-5 20.11703,3.63061 26.63214,10.89158 6.56472,7.21139 9.8471,17.0337 9.84719,29.46695 m -13.72638,-4.0284 c -0.0995,-7.50966 -2.21319,-13.5025 -6.34098,-17.97856 -4.07819,-4.47592 -9.4991,-6.71392 -16.26277,-6.71399 -7.65896,7e-5 -13.80101,2.16347 -18.42617,6.49019 -4.57548,4.32685 -7.21134,10.41917 -7.90758,18.27697 l 48.9375,-0.0746"
       style="font-variant:normal;font-weight:500;font-stretch:normal;font-size:143.23171997px;font-family:Sans;-inkscape-font-specification:'LucidaTypewriter Medium';fill:#ffffff;stroke-width:1.06666672"
       id="path3005"
       inkscape:connector-curvature="0" />
    <path
       d="m 429.03651,440.504 38.64272,56.84509 h -29.91454 l -26.03535,-38.04592 -25.81155,38.04592 H 355.85406 L 394.49678,440.504 357.34605,385.97151 h 29.98914 l 24.39415,35.88253 24.31956,-35.88253 h 30.13834 L 429.03651,440.504"
       style="font-weight:bold;-inkscape-font-specification:'LucidaTypewriter Bold';fill:#ff4e00;stroke-width:1.06666672"
       id="path3007"
       inkscape:connector-curvature="0" />
    <path
       d="m 530.34311,404.77067 c -8.75309,9e-5 -15.54168,3.23275 -20.36576,9.69798 -4.82416,6.4654 -7.23622,15.56657 -7.23618,27.30354 -4e-5,11.68736 2.41202,20.76367 7.23618,27.22895 4.82408,6.46535 11.61267,9.69801 20.36576,9.69799 8.80271,2e-5 15.61616,-3.23264 20.44037,-9.69799 4.82403,-6.46528 7.23609,-15.54159 7.23618,-27.22895 -9e-5,-11.73697 -2.41215,-20.83814 -7.23618,-27.30354 -4.82421,-6.46523 -11.63766,-9.69789 -20.44037,-9.69798 m 0,-20.81336 c 17.90389,1.1e-4 31.92864,5.12264 42.07432,15.36758 10.14547,10.24513 15.21825,24.39421 15.21838,42.4473 -1.3e-4,18.00348 -5.07291,32.1277 -15.21838,42.37273 -10.14568,10.24504 -24.17043,15.36756 -42.07432,15.36756 -17.85427,0 -31.87904,-5.12252 -42.07431,-15.36756 -10.14559,-10.24503 -15.21838,-24.36925 -15.21837,-42.37273 -1e-5,-18.05309 5.07278,-32.20217 15.21837,-42.4473 10.19527,-10.24494 24.22004,-15.36747 42.07431,-15.36758"
       style="font-weight:bold;-inkscape-font-specification:'LucidaTypewriter Bold';fill:#ff4e00;stroke-width:1.06666672"
       id="path3009"
       inkscape:connector-curvature="0" />
  </g>
  <text
     xml:space="preserve"
     style="font-style:normal;font-weight:normal;font-size:12.80000019px;line-height:0%;font-family:sans-serif;letter-spacing:0px;word-spacing:0px;fill:#ff4e00;fill-opacity:1;stroke:none;stroke-width:1.06666672"
     x="236.51288"
     y="677.35553"
     id="text4012-7"
     transform="scale(0.95538806,1.0466951)"
     inkscape:export-xdpi="93.726006"
     inkscape:export-ydpi="93.726006"><tspan
       sodipodi:role="line"
       id="tspan4014-0"
       x="236.51288"
       y="677.35553"
       style="font-style:normal;font-variant:normal;font-weight:500;font-stretch:normal;font-size:50.70520401px;line-height:1.25;font-family:sans-serif;-inkscape-font-specification:'Lucida Medium';fill:#ff4e00;fill-opacity:1;stroke-width:1.06666672">xarxa oberta</tspan></text>
  <g
     style="overflow:visible;fill:#ffffff;fill-opacity:1"
     id="g4119"
     transform="matrix(0.13198046,0,0,0.1390731,228.14468,508.81409)"
     inkscape:export-filename="/home/victor/Dropbox/eXO/Documents/logo/logo/fondo blanco/text4012-7-3.png"
     inkscape:export-xdpi="93.726006"
     inkscape:export-ydpi="93.726006">
    <path
       id="path5"
       d="m 1983.1667,140.93331 c -42.2997,0 -78.7582,17.2256 -109.4334,51.73334 -30.6752,34.5088 -51.4826,81.69866 -62.4,141.53333 -11.0784,60.72427 -7.4784,108.81867 10.8,144.33333 18.271,35.5136 48.0505,47.52134 90.9666,53.76667 3.2203,0.4672 47.3042,3.1368 59.9335,1.7 29.5028,-3.37493 63.4162,-6.27893 81.5666,-18.6 l -16.7666,-73.46667 c -28.0565,10.52267 -56.8903,15.18667 -80.4668,15.53334 -43.4217,-2.66027 -57.8247,-15.5024 -65.2999,-30.06667 -7.4667,-14.56427 -9.1277,-36.184 -4.9668,-64.86667 h 195.2334 c 0.912,-3.14133 1.7177,-6.46133 2.4334,-9.93333 l 2.9999,-15.63333 c 11.4496,-62.76694 8.0825,-111.13734 -10.0999,-145.1 -18.1824,-33.96267 -49.6926,-50.93334 -94.5,-50.93334 z m -13.3,81.86667 c 18.2794,0 31.0867,6.4696 38.5,19.36667 7.426,12.8992 9.2479,31.69146 5.4667,56.36666 h -115.0667 c 6.0639,-24.448 15.1862,-43.18773 27.3334,-56.2 12.1396,-13.01226 26.7383,-19.53333 43.7666,-19.53333 z"
       style="fill:#ff4e00;fill-opacity:1;stroke-width:1.06666672"
       inkscape:connector-curvature="0" />
    <path
       id="path7"
       d="m 178.23333,140.93331 c -37.8112,0 -71.06453,17.41974 -99.73333,52.26667 -28.665599,34.848 -48.3784,81.83307 -59.166667,141 C 9.1136003,390.22345 12.294134,435.10211 28.9,468.83331 c 16.609066,33.72694 43.825334,50.6 81.63333,50.6 19.7152,0 36.92507,-4.20746 51.63334,-12.6 14.69866,-8.38933 27.7688,-21.42 39.23333,-39.1 l -5.93333,32.56667 c -6.32747,34.704 -15.51627,58.51893 -27.53334,71.4 -12.02026,12.87573 -30.1848,17.32987 -54.56666,19.3 -25.703469,2.07147 -61.728538,-1.94427 -96.600003,-15.03333 L 0,649.43331 c 18.147199,12.32534 64.900001,19.33334 95.566667,19.33334 23.290663,0 44.593063,-2.96187 63.866663,-8.9 19.26614,-5.93814 35.8552,-14.63734 49.76667,-26.06667 16.29547,-13.67467 29.15333,-30.59707 38.56667,-50.76667 9.41973,-20.17493 17.60693,-49.43493 24.6,-87.76666 L 334.6,153.99998 h -74.33333 l -8.06667,44.2 c -5.25867,-19.31733 -13.9648,-33.69013 -26.13333,-43.13333 -12.16854,-9.43574 -28.12027,-14.13334 -47.83334,-14.13334 z M 181.2,224.86665 c 20.608,0 34.82587,9.15146 42.7,27.4 7.87307,18.25493 8.78853,44.068 2.7,77.43333 -6.41387,35.16267 -16.70907,61.90293 -30.9,80.26667 -14.19627,18.36693 -31.62533,27.56666 -52.23333,27.56666 -20.44054,0 -34.49627,-9.19973 -42.16667,-27.56666 -7.6736,-18.36374 -8.379733,-44.66667 -2.133333,-78.93334 6.128003,-33.59466 16.375733,-59.67786 30.700003,-78.26666 14.32213,-18.5888 31.43573,-27.9 51.33333,-27.9 z"
       style="fill:#ffffff;fill-opacity:1;fill-rule:evenodd;stroke-width:1.06666672"
       inkscape:connector-curvature="0" />
    <path
       d="M 688.71147,153.99573 622.0544,519.4304 h -76.56427 l 7.90827,-43.36107 c -14.3328,17.67147 -29.696,30.912 -46.0896,39.744 -16.3968,8.82987 -33.824,13.25227 -52.2848,13.25227 -32.07573,0 -54.21653,-10.52267 -66.41707,-31.57547 -12.1984,-21.04426 -14.4768,-52.4992 -6.83946,-94.36586 l 45.44106,-249.12854 h 78.176 l -40.29226,220.8928 c -4.7392,25.9968 -4.62614,44.544 0.34346,55.63734 4.96854,11.09546 15.5168,16.63893 31.6512,16.63893 18.288,0 34.11414,-6.8928 47.47307,-20.6752 13.36533,-13.78667 22.2112,-32.55467 26.544,-56.31467 l 39.42827,-216.1792 z"
       id="path13"
       inkscape:connector-curvature="0"
       style="clip-rule:evenodd;fill:#ffffff;fill-opacity:1;fill-rule:evenodd;stroke-width:1.06666672" />
    <polygon
       points="820.442,144.371 757.957,486.965 684.663,486.965 747.155,144.371 "
       id="polygon15"
       style="clip-rule:evenodd;fill:#ffffff;fill-opacity:1;fill-rule:evenodd"
       transform="scale(1.0666667)" />
    <g
       id="g17"
       style="fill:#ffffff;fill-opacity:1">
      <path
         d="m 801.43253,64.338133 c 1.3152,-26.253866 23.65334,-47.531733 49.904,-47.531733 26.2496,0 46.4704,21.277867 45.15307,47.531733 -1.312,26.250667 -23.64907,47.530667 -49.9008,47.530667 -26.25067,0 -46.46613,-21.28 -45.15627,-47.530667 z"
         id="path19"
         inkscape:connector-curvature="0"
         style="fill:#ffffff;fill-opacity:1;stroke-width:1.06666672" />
      <path
         d="M 848.96107,64.338133"
         id="path21"
         inkscape:connector-curvature="0"
         style="fill:#ffffff;fill-opacity:1;stroke-width:1.06666672" />
    </g>
    <g
       id="g23"
       style="fill:#ff4e00;fill-opacity:1">
      <path
         d="m 1340.0053,326.48107 c 1.3099,-26.25067 23.6598,-47.53174 49.9094,-47.53174 26.2506,0 46.465,21.28 45.1466,47.53174 -1.3098,26.25066 -23.6533,47.53066 -49.8976,47.53066 -26.2538,-10e-4 -46.4672,-21.28 -45.1584,-47.53066 z"
         id="path25"
         inkscape:connector-curvature="0"
         style="fill:#ff4e00;fill-opacity:1;stroke-width:1.06666672" />
      <path
         d="M 1387.5339,326.48107"
         id="path27"
         inkscape:connector-curvature="0"
         style="fill:#ff4e00;fill-opacity:1;stroke-width:1.06666672" />
    </g>
    <path
       d="m 1463.6501,519.42933 66.656,-365.43466 h 76.5664 l -7.904,43.344 c 14.1526,-17.66614 29.4678,-30.91094 45.9552,-39.73547 16.479,-8.8288 33.8667,-13.2448 52.1451,-13.2448 32.256,0 54.4885,10.46613 66.7104,31.39733 12.2229,20.93547 14.4971,52.4448 6.8149,94.53227 l -45.4357,249.14133 h -78.1771 l 40.2923,-220.90666 c 4.7776,-26.21867 4.6571,-44.93654 -0.3829,-56.14294 -5.0411,-11.20853 -15.5339,-16.81386 -31.488,-16.81386 -18.4683,0 -34.336,6.8928 -47.6096,20.67946 -13.2694,13.78454 -22.0683,32.5568 -26.4086,56.31254 l -39.5594,216.8704 h -78.175 z"
       id="path29"
       inkscape:connector-curvature="0"
       style="clip-rule:evenodd;fill:#ff4e00;fill-opacity:1;fill-rule:evenodd;stroke-width:1.06666672" />
    <path
       d="m 2235.136,522.1792 c -7.2235,0.2304 -15.8592,0.6336 -25.9275,1.2064 -10.0672,0.5696 -16.4554,0.85973 -19.1434,0.85973 -29.9648,0 -49.1926,-7.00693 -57.6768,-21.0144 -8.4854,-14.01493 -8.9643,-41.648 -1.4486,-82.90133 l 36.0342,-197.5136 h -38.608 l 12.5514,-68.82133 h 38.608 l 18.2027,-99.792003 h 77.6213 l -18.2016,99.792003 h 45.1456 l -12.5514,68.82133 h -45.1456 l -36.879,202.20907 c -1.7621,9.6288 -1.2096,15.952 1.6448,18.98026 2.847,3.024 9.5563,4.5408 20.1312,4.5408 h 19.0806 z"
       id="path31"
       inkscape:connector-curvature="0"
       style="clip-rule:evenodd;fill:#ff4e00;fill-opacity:1;fill-rule:evenodd;stroke-width:1.06666672" />
    <path
       d="M 971.56587,222.816 H 929.728 l 12.55147,-68.82133 h 59.19683 c 6.1077,-28.8992 13.04,-51.65014 20.7829,-68.25387 9.4187,-20.176 22.2677,-37.101867 38.5621,-50.769067 13.9062,-11.437866 30.4992,-20.1248 49.7654,-26.062933 C 1129.8603,2.9717333 1151.1424,0 1174.4363,0 c 30.6634,0 77.4282,6.9962667 95.5808,19.3216 l -16.7648,73.4848 c -34.8715,-13.086933 -70.9099,-17.115733 -96.6102,-15.038933 -24.3829,1.968 -42.5546,6.437333 -54.576,19.320533 -10.2688,10.99947 -18.464,29.97227 -24.5792,56.90773 h 201.5958 L 1212.432,519.4304 h -78.1707 l 54.1003,-296.61333 h -123.984 L 1009.76,514.7744 H 935.40267 L 988.6528,222.816 Z"
       id="path33"
       inkscape:connector-curvature="0"
       style="fill:#ffffff;fill-opacity:1;stroke-width:1.06666672" />
  </g>
  <text
     xml:space="preserve"
     style="font-style:normal;font-weight:normal;font-size:12.80000019px;line-height:0%;font-family:sans-serif;letter-spacing:0px;word-spacing:0px;fill:#ffffff;fill-opacity:1;stroke:none;stroke-width:1.06666672"
     x="280.81546"
     y="618.55371"
     id="text4012-7-3"
     transform="scale(0.95538806,1.0466951)"
     inkscape:export-xdpi="93.726006"
     inkscape:export-ydpi="93.726006"><tspan
       sodipodi:role="line"
       id="tspan4014-0-6"
       x="280.81546"
       y="618.55371"
       style="font-style:normal;font-variant:normal;font-weight:500;font-stretch:normal;font-size:53.59912109px;line-height:1.25;font-family:sans-serif;-inkscape-font-specification:'Lucida Medium';fill:#ffffff;fill-opacity:1;stroke-width:1.06666672">expansió</tspan></text>
</svg>
